<svg class="rich-terminal" viewBox="0 0 1421 586.8" xmlns="http://www.w3.org/2000/svg">
    <!-- Generated with Rich https://www.textualize.io -->
    <style>

    @font-face {
        font-family: "Fira Code";
        src: local("FiraCode-Regular"),
                url("https://cdnjs.cloudflare.com/ajax/libs/firacode/6.2.0/woff2/FiraCode-Regular.woff2") format("woff2"),
                url("https://cdnjs.cloudflare.com/ajax/libs/firacode/6.2.0/woff/FiraCode-Regular.woff") format("woff");
        font-style: normal;
        font-weight: 400;
    }
    @font-face {
        font-family: "Fira Code";
        src: local("FiraCode-Bold"),
                url("https://cdnjs.cloudflare.com/ajax/libs/firacode/6.2.0/woff2/FiraCode-Bold.woff2") format("woff2"),
                url("https://cdnjs.cloudflare.com/ajax/libs/firacode/6.2.0/woff/FiraCode-Bold.woff") format("woff");
        font-style: bold;
        font-weight: 700;
    }

    .terminal-3706270333-matrix {
        font-family: Fira Code, monospace;
        font-size: 20px;
        line-height: 24.4px;
        font-variant-east-asian: full-width;
    }

    .terminal-3706270333-title {
        font-size: 18px;
        font-weight: bold;
        font-family: arial;
    }

    .terminal-3706270333-r1 { fill: #c5c8c6 }
.terminal-3706270333-r2 { fill: #ff79c6 }
.terminal-3706270333-r3 { fill: #f8f8f2 }
.terminal-3706270333-r4 { fill: #bd93f9 }
.terminal-3706270333-r5 { fill: #e2e2e4 }
.terminal-3706270333-r6 { fill: #f8f8f2;font-weight: bold }
.terminal-3706270333-r7 { fill: #1e1f29 }
.terminal-3706270333-r8 { fill: #f8f8f2;text-decoration: underline; }
.terminal-3706270333-r9 { fill: #44475a }
    </style>

    <defs>
    <clipPath id="terminal-3706270333-clip-terminal">
      <rect x="0" y="0" width="1402.0" height="535.8" />
    </clipPath>
    <clipPath id="terminal-3706270333-line-0">
    <rect x="0" y="1.5" width="1403" height="24.65"/>
            </clipPath>
<clipPath id="terminal-3706270333-line-1">
    <rect x="0" y="25.9" width="1403" height="24.65"/>
            </clipPath>
<clipPath id="terminal-3706270333-line-2">
    <rect x="0" y="50.3" width="1403" height="24.65"/>
            </clipPath>
<clipPath id="terminal-3706270333-line-3">
    <rect x="0" y="74.7" width="1403" height="24.65"/>
            </clipPath>
<clipPath id="terminal-3706270333-line-4">
    <rect x="0" y="99.1" width="1403" height="24.65"/>
            </clipPath>
<clipPath id="terminal-3706270333-line-5">
    <rect x="0" y="123.5" width="1403" height="24.65"/>
            </clipPath>
<clipPath id="terminal-3706270333-line-6">
    <rect x="0" y="147.9" width="1403" height="24.65"/>
            </clipPath>
<clipPath id="terminal-3706270333-line-7">
    <rect x="0" y="172.3" width="1403" height="24.65"/>
            </clipPath>
<clipPath id="terminal-3706270333-line-8">
    <rect x="0" y="196.7" width="1403" height="24.65"/>
            </clipPath>
<clipPath id="terminal-3706270333-line-9">
    <rect x="0" y="221.1" width="1403" height="24.65"/>
            </clipPath>
<clipPath id="terminal-3706270333-line-10">
    <rect x="0" y="245.5" width="1403" height="24.65"/>
            </clipPath>
<clipPath id="terminal-3706270333-line-11">
    <rect x="0" y="269.9" width="1403" height="24.65"/>
            </clipPath>
<clipPath id="terminal-3706270333-line-12">
    <rect x="0" y="294.3" width="1403" height="24.65"/>
            </clipPath>
<clipPath id="terminal-3706270333-line-13">
    <rect x="0" y="318.7" width="1403" height="24.65"/>
            </clipPath>
<clipPath id="terminal-3706270333-line-14">
    <rect x="0" y="343.1" width="1403" height="24.65"/>
            </clipPath>
<clipPath id="terminal-3706270333-line-15">
    <rect x="0" y="367.5" width="1403" height="24.65"/>
            </clipPath>
<clipPath id="terminal-3706270333-line-16">
    <rect x="0" y="391.9" width="1403" height="24.65"/>
            </clipPath>
<clipPath id="terminal-3706270333-line-17">
    <rect x="0" y="416.3" width="1403" height="24.65"/>
            </clipPath>
<clipPath id="terminal-3706270333-line-18">
    <rect x="0" y="440.7" width="1403" height="24.65"/>
            </clipPath>
<clipPath id="terminal-3706270333-line-19">
    <rect x="0" y="465.1" width="1403" height="24.65"/>
            </clipPath>
<clipPath id="terminal-3706270333-line-20">
    <rect x="0" y="489.5" width="1403" height="24.65"/>
            </clipPath>
    </defs>

    <rect fill="#292929" stroke="rgba(255,255,255,0.35)" stroke-width="1" x="1" y="1" width="1419" height="584.8" rx="8"/><text class="terminal-3706270333-title" fill="#c5c8c6" text-anchor="middle" x="709" y="27">housaku</text>
            <g transform="translate(26,22)">
            <circle cx="0" cy="0" r="7" fill="#ff5f57"/>
            <circle cx="22" cy="0" r="7" fill="#febc2e"/>
            <circle cx="44" cy="0" r="7" fill="#28c840"/>
            </g>
        
    <g transform="translate(9, 41)" clip-path="url(#terminal-3706270333-clip-terminal)">
    <rect fill="#1e1f29" x="0" y="1.5" width="1403" height="24.65" shape-rendering="crispEdges"/><rect fill="#1e1f29" x="0" y="25.9" width="12.2" height="24.65" shape-rendering="crispEdges"/><rect fill="#1e1f29" x="12.2" y="25.9" width="85.4" height="24.65" shape-rendering="crispEdges"/><rect fill="#1e1f29" x="97.6" y="25.9" width="12.2" height="24.65" shape-rendering="crispEdges"/><rect fill="#1e1f29" x="109.8" y="25.9" width="73.2" height="24.65" shape-rendering="crispEdges"/><rect fill="#1e1f29" x="183" y="25.9" width="1207.8" height="24.65" shape-rendering="crispEdges"/><rect fill="#1e1f29" x="1390.8" y="25.9" width="12.2" height="24.65" shape-rendering="crispEdges"/><rect fill="#1e1f29" x="0" y="50.3" width="1403" height="24.65" shape-rendering="crispEdges"/><rect fill="#262731" x="0" y="74.7" width="12.2" height="24.65" shape-rendering="crispEdges"/><rect fill="#262731" x="12.2" y="74.7" width="207.4" height="24.65" shape-rendering="crispEdges"/><rect fill="#262731" x="219.6" y="74.7" width="976" height="24.65" shape-rendering="crispEdges"/><rect fill="#262731" x="1195.6" y="74.7" width="12.2" height="24.65" shape-rendering="crispEdges"/><rect fill="#ff79c6" x="1207.8" y="74.7" width="12.2" height="24.65" shape-rendering="crispEdges"/><rect fill="#ff79c6" x="1220" y="74.7" width="36.6" height="24.65" shape-rendering="crispEdges"/><rect fill="#ff79c6" x="1256.6" y="74.7" width="12.2" height="24.65" shape-rendering="crispEdges"/><rect fill="#ff79c6" x="1268.8" y="74.7" width="73.2" height="24.65" shape-rendering="crispEdges"/><rect fill="#ff79c6" x="1342" y="74.7" width="12.2" height="24.65" shape-rendering="crispEdges"/><rect fill="#ff79c6" x="1354.2" y="74.7" width="36.6" height="24.65" shape-rendering="crispEdges"/><rect fill="#ff79c6" x="1390.8" y="74.7" width="12.2" height="24.65" shape-rendering="crispEdges"/><rect fill="#1e1f29" x="0" y="99.1" width="1403" height="24.65" shape-rendering="crispEdges"/><rect fill="#1e1f29" x="0" y="123.5" width="12.2" height="24.65" shape-rendering="crispEdges"/><rect fill="#1e1f29" x="12.2" y="123.5" width="12.2" height="24.65" shape-rendering="crispEdges"/><rect fill="#1e1f29" x="24.4" y="123.5" width="109.8" height="24.65" shape-rendering="crispEdges"/><rect fill="#1e1f29" x="134.2" y="123.5" width="1256.6" height="24.65" shape-rendering="crispEdges"/><rect fill="#1e1f29" x="1390.8" y="123.5" width="12.2" height="24.65" shape-rendering="crispEdges"/><rect fill="#1e1f29" x="0" y="147.9" width="12.2" height="24.65" shape-rendering="crispEdges"/><rect fill="#1e1f29" x="12.2" y="147.9" width="12.2" height="24.65" shape-rendering="crispEdges"/><rect fill="#1e1f29" x="24.4" y="147.9" width="707.6" height="24.65" shape-rendering="crispEdges"/><rect fill="#1e1f29" x="732" y="147.9" width="634.4" height="24.65" shape-rendering="crispEdges"/><rect fill="#1e1f29" x="1366.4" y="147.9" width="12.2" height="24.65" shape-rendering="crispEdges"/><rect fill="#d96fb0" x="1378.6" y="147.9" width="12.2" height="24.65" shape-rendering="crispEdges"/><rect fill="#1e1f29" x="1390.8" y="147.9" width="12.2" height="24.65" shape-rendering="crispEdges"/><rect fill="#1e1f29" x="0" y="172.3" width="12.2" height="24.65" shape-rendering="crispEdges"/><rect fill="#1e1f29" x="12.2" y="172.3" width="12.2" height="24.65" shape-rendering="crispEdges"/><rect fill="#1e1f29" x="24.4" y="172.3" width="854" height="24.65" shape-rendering="crispEdges"/><rect fill="#1e1f29" x="878.4" y="172.3" width="488" height="24.65" shape-rendering="crispEdges"/><rect fill="#1e1f29" x="1366.4" y="172.3" width="12.2" height="24.65" shape-rendering="crispEdges"/><rect fill="#d96fb0" x="1378.6" y="172.3" width="12.2" height="24.65" shape-rendering="crispEdges"/><rect fill="#1e1f29" x="1390.8" y="172.3" width="12.2" height="24.65" shape-rendering="crispEdges"/><rect fill="#1e1f29" x="0" y="196.7" width="12.2" height="24.65" shape-rendering="crispEdges"/><rect fill="#1e1f29" x="12.2" y="196.7" width="12.2" height="24.65" shape-rendering="crispEdges"/><rect fill="#1e1f29" x="24.4" y="196.7" width="1329.8" height="24.65" shape-rendering="crispEdges"/><rect fill="#1e1f29" x="1354.2" y="196.7" width="12.2" height="24.65" shape-rendering="crispEdges"/><rect fill="#1e1f29" x="1366.4" y="196.7" width="12.2" height="24.65" shape-rendering="crispEdges"/><rect fill="#d96fb0" x="1378.6" y="196.7" width="12.2" height="24.65" shape-rendering="crispEdges"/><rect fill="#1e1f29" x="1390.8" y="196.7" width="12.2" height="24.65" shape-rendering="crispEdges"/><rect fill="#1e1f29" x="0" y="221.1" width="12.2" height="24.65" shape-rendering="crispEdges"/><rect fill="#1e1f29" x="12.2" y="221.1" width="12.2" height="24.65" shape-rendering="crispEdges"/><rect fill="#1e1f29" x="24.4" y="221.1" width="1329.8" height="24.65" shape-rendering="crispEdges"/><rect fill="#1e1f29" x="1354.2" y="221.1" width="12.2" height="24.65" shape-rendering="crispEdges"/><rect fill="#1e1f29" x="1366.4" y="221.1" width="12.2" height="24.65" shape-rendering="crispEdges"/><rect fill="#d96fb0" x="1378.6" y="221.1" width="12.2" height="24.65" shape-rendering="crispEdges"/><rect fill="#1e1f29" x="1390.8" y="221.1" width="12.2" height="24.65" shape-rendering="crispEdges"/><rect fill="#1e1f29" x="0" y="245.5" width="12.2" height="24.65" shape-rendering="crispEdges"/><rect fill="#1e1f29" x="12.2" y="245.5" width="12.2" height="24.65" shape-rendering="crispEdges"/><rect fill="#1e1f29" x="24.4" y="245.5" width="744.2" height="24.65" shape-rendering="crispEdges"/><rect fill="#1e1f29" x="768.6" y="245.5" width="597.8" height="24.65" shape-rendering="crispEdges"/><rect fill="#1e1f29" x="1366.4" y="245.5" width="12.2" height="24.65" shape-rendering="crispEdges"/><rect fill="#44475a" x="1378.6" y="245.5" width="12.2" height="24.65" shape-rendering="crispEdges"/><rect fill="#1e1f29" x="1390.8" y="245.5" width="12.2" height="24.65" shape-rendering="crispEdges"/><rect fill="#1e1f29" x="0" y="269.9" width="12.2" height="24.65" shape-rendering="crispEdges"/><rect fill="#1e1f29" x="12.2" y="269.9" width="1366.4" height="24.65" shape-rendering="crispEdges"/><rect fill="#44475a" x="1378.6" y="269.9" width="12.2" height="24.65" shape-rendering="crispEdges"/><rect fill="#1e1f29" x="1390.8" y="269.9" width="12.2" height="24.65" shape-rendering="crispEdges"/><rect fill="#1e1f29" x="0" y="294.3" width="12.2" height="24.65" shape-rendering="crispEdges"/><rect fill="#1e1f29" x="12.2" y="294.3" width="12.2" height="24.65" shape-rendering="crispEdges"/><rect fill="#1e1f29" x="24.4" y="294.3" width="585.6" height="24.65" shape-rendering="crispEdges"/><rect fill="#1e1f29" x="610" y="294.3" width="756.4" height="24.65" shape-rendering="crispEdges"/><rect fill="#1e1f29" x="1366.4" y="294.3" width="12.2" height="24.65" shape-rendering="crispEdges"/><rect fill="#44475a" x="1378.6" y="294.3" width="12.2" height="24.65" shape-rendering="crispEdges"/><rect fill="#1e1f29" x="1390.8" y="294.3" width="12.2" height="24.65" shape-rendering="crispEdges"/><rect fill="#1e1f29" x="0" y="318.7" width="12.2" height="24.65" shape-rendering="crispEdges"/><rect fill="#1e1f29" x="12.2" y="318.7" width="12.2" height="24.65" shape-rendering="crispEdges"/><rect fill="#1e1f29" x="24.4" y="318.7" width="512.4" height="24.65" shape-rendering="crispEdges"/><rect fill="#1e1f29" x="536.8" y="318.7" width="829.6" height="24.65" shape-rendering="crispEdges"/><rect fill="#1e1f29" x="1366.4" y="318.7" width="12.2" height="24.65" shape-rendering="crispEdges"/><rect fill="#44475a" x="1378.6" y="318.7" width="12.2" height="24.65" shape-rendering="crispEdges"/><rect fill="#1e1f29" x="1390.8" y="318.7" width="12.2" height="24.65" shape-rendering="crispEdges"/><rect fill="#1e1f29" x="0" y="343.1" width="12.2" height="24.65" shape-rendering="crispEdges"/><rect fill="#1e1f29" x="12.2" y="343.1" width="12.2" height="24.65" shape-rendering="crispEdges"/><rect fill="#1e1f29" x="24.4" y="343.1" width="1342" height="24.65" shape-rendering="crispEdges"/><rect fill="#1e1f29" x="1366.4" y="343.1" width="12.2" height="24.65" shape-rendering="crispEdges"/><rect fill="#44475a" x="1378.6" y="343.1" width="12.2" height="24.65" shape-rendering="crispEdges"/><rect fill="#1e1f29" x="1390.8" y="343.1" width="12.2" height="24.65" shape-rendering="crispEdges"/><rect fill="#1e1f29" x="0" y="367.5" width="12.2" height="24.65" shape-rendering="crispEdges"/><rect fill="#1e1f29" x="12.2" y="367.5" width="12.2" height="24.65" shape-rendering="crispEdges"/><rect fill="#1e1f29" x="24.4" y="367.5" width="1256.6" height="24.65" shape-rendering="crispEdges"/><rect fill="#1e1f29" x="1281" y="367.5" width="85.4" height="24.65" shape-rendering="crispEdges"/><rect fill="#1e1f29" x="1366.4" y="367.5" width="12.2" height="24.65" shape-rendering="crispEdges"/><rect fill="#44475a" x="1378.6" y="367.5" width="12.2" height="24.65" shape-rendering="crispEdges"/><rect fill="#1e1f29" x="1390.8" y="367.5" width="12.2" height="24.65" shape-rendering="crispEdges"/><rect fill="#1e1f29" x="0" y="391.9" width="12.2" height="24.65" shape-rendering="crispEdges"/><rect fill="#1e1f29" x="12.2" y="391.9" width="12.2" height="24.65" shape-rendering="crispEdges"/><rect fill="#1e1f29" x="24.4" y="391.9" width="768.6" height="24.65" shape-rendering="crispEdges"/><rect fill="#1e1f29" x="793" y="391.9" width="573.4" height="24.65" shape-rendering="crispEdges"/><rect fill="#1e1f29" x="1366.4" y="391.9" width="12.2" height="24.65" shape-rendering="crispEdges"/><rect fill="#44475a" x="1378.6" y="391.9" width="12.2" height="24.65" shape-rendering="crispEdges"/><rect fill="#1e1f29" x="1390.8" y="391.9" width="12.2" height="24.65" shape-rendering="crispEdges"/><rect fill="#1e1f29" x="0" y="416.3" width="12.2" height="24.65" shape-rendering="crispEdges"/><rect fill="#1e1f29" x="12.2" y="416.3" width="1366.4" height="24.65" shape-rendering="crispEdges"/><rect fill="#44475a" x="1378.6" y="416.3" width="12.2" height="24.65" shape-rendering="crispEdges"/><rect fill="#1e1f29" x="1390.8" y="416.3" width="12.2" height="24.65" shape-rendering="crispEdges"/><rect fill="#1e1f29" x="0" y="440.7" width="12.2" height="24.65" shape-rendering="crispEdges"/><rect fill="#1e1f29" x="12.2" y="440.7" width="12.2" height="24.65" shape-rendering="crispEdges"/><rect fill="#1e1f29" x="24.4" y="440.7" width="414.8" height="24.65" shape-rendering="crispEdges"/><rect fill="#1e1f29" x="439.2" y="440.7" width="927.2" height="24.65" shape-rendering="crispEdges"/><rect fill="#1e1f29" x="1366.4" y="440.7" width="12.2" height="24.65" shape-rendering="crispEdges"/><rect fill="#44475a" x="1378.6" y="440.7" width="12.2" height="24.65" shape-rendering="crispEdges"/><rect fill="#1e1f29" x="1390.8" y="440.7" width="12.2" height="24.65" shape-rendering="crispEdges"/><rect fill="#1e1f29" x="0" y="465.1" width="12.2" height="24.65" shape-rendering="crispEdges"/><rect fill="#1e1f29" x="12.2" y="465.1" width="12.2" height="24.65" shape-rendering="crispEdges"/><rect fill="#1e1f29" x="24.4" y="465.1" width="671" height="24.65" shape-rendering="crispEdges"/><rect fill="#1e1f29" x="695.4" y="465.1" width="671" height="24.65" shape-rendering="crispEdges"/><rect fill="#1e1f29" x="1366.4" y="465.1" width="12.2" height="24.65" shape-rendering="crispEdges"/><rect fill="#44475a" x="1378.6" y="465.1" width="12.2" height="24.65" shape-rendering="crispEdges"/><rect fill="#1e1f29" x="1390.8" y="465.1" width="12.2" height="24.65" shape-rendering="crispEdges"/><rect fill="#1e1f29" x="0" y="489.5" width="12.2" height="24.65" shape-rendering="crispEdges"/><rect fill="#1e1f29" x="12.2" y="489.5" width="12.2" height="24.65" shape-rendering="crispEdges"/><rect fill="#1e1f29" x="24.4" y="489.5" width="1232.2" height="24.65" shape-rendering="crispEdges"/><rect fill="#1e1f29" x="1256.6" y="489.5" width="109.8" height="24.65" shape-rendering="crispEdges"/><rect fill="#1e1f29" x="1366.4" y="489.5" width="12.2" height="24.65" shape-rendering="crispEdges"/><rect fill="#44475a" x="1378.6" y="489.5" width="12.2" height="24.65" shape-rendering="crispEdges"/><rect fill="#1e1f29" x="1390.8" y="489.5" width="12.2" height="24.65" shape-rendering="crispEdges"/><rect fill="#1e1f29" x="0" y="513.9" width="12.2" height="24.65" shape-rendering="crispEdges"/><rect fill="#1e1f29" x="12.2" y="513.9" width="1232.2" height="24.65" shape-rendering="crispEdges"/><rect fill="#1e1f29" x="1244.4" y="513.9" width="134.2" height="24.65" shape-rendering="crispEdges"/><rect fill="#1e1f29" x="1378.6" y="513.9" width="12.2" height="24.65" shape-rendering="crispEdges"/><rect fill="#1e1f29" x="1390.8" y="513.9" width="12.2" height="24.65" shape-rendering="crispEdges"/>
    <g class="terminal-3706270333-matrix">
    <text class="terminal-3706270333-r1" x="1403" y="20" textLength="12.2" clip-path="url(#terminal-3706270333-line-0)">
</text><text class="terminal-3706270333-r2" x="12.2" y="44.4" textLength="85.4" clip-path="url(#terminal-3706270333-line-1)">housaku</text><text class="terminal-3706270333-r4" x="109.8" y="44.4" textLength="73.2" clip-path="url(#terminal-3706270333-line-1)">v0.4.9</text><text class="terminal-3706270333-r1" x="1403" y="44.4" textLength="12.2" clip-path="url(#terminal-3706270333-line-1)">
</text><text class="terminal-3706270333-r1" x="1403" y="68.8" textLength="12.2" clip-path="url(#terminal-3706270333-line-2)">
</text><text class="terminal-3706270333-r5" x="12.2" y="93.2" textLength="207.4" clip-path="url(#terminal-3706270333-line-3)">django&#160;AND&#160;sqlite</text><text class="terminal-3706270333-r6" x="1268.8" y="93.2" textLength="73.2" clip-path="url(#terminal-3706270333-line-3)">Search</text><text class="terminal-3706270333-r1" x="1403" y="93.2" textLength="12.2" clip-path="url(#terminal-3706270333-line-3)">
</text><text class="terminal-3706270333-r1" x="1403" y="117.6" textLength="12.2" clip-path="url(#terminal-3706270333-line-4)">
</text><text class="terminal-3706270333-r2" x="0" y="142" textLength="12.2" clip-path="url(#terminal-3706270333-line-5)">╭</text><text class="terminal-3706270333-r2" x="12.2" y="142" textLength="12.2" clip-path="url(#terminal-3706270333-line-5)">─</text><text class="terminal-3706270333-r2" x="24.4" y="142" textLength="109.8" clip-path="url(#terminal-3706270333-line-5)">&#160;results&#160;</text><text class="terminal-3706270333-r2" x="134.2" y="142" textLength="1256.6" clip-path="url(#terminal-3706270333-line-5)">───────────────────────────────────────────────────────────────────────────────────────────────────────</text><text class="terminal-3706270333-r2" x="1390.8" y="142" textLength="12.2" clip-path="url(#terminal-3706270333-line-5)">╮</text><text class="terminal-3706270333-r1" x="1403" y="142" textLength="12.2" clip-path="url(#terminal-3706270333-line-5)">
</text><text class="terminal-3706270333-r2" x="0" y="166.4" textLength="12.2" clip-path="url(#terminal-3706270333-line-6)">│</text><text class="terminal-3706270333-r6" x="24.4" y="166.4" textLength="707.6" clip-path="url(#terminal-3706270333-line-6)">Decimal&#160;error&#160;when&#160;upgrading&#160;from&#160;Django&#160;3.1&#160;to&#160;Django&#160;3.2</text><text class="terminal-3706270333-r2" x="1390.8" y="166.4" textLength="12.2" clip-path="url(#terminal-3706270333-line-6)">│</text><text class="terminal-3706270333-r1" x="1403" y="166.4" textLength="12.2" clip-path="url(#terminal-3706270333-line-6)">
</text><text class="terminal-3706270333-r2" x="0" y="190.8" textLength="12.2" clip-path="url(#terminal-3706270333-line-7)">│</text><text class="terminal-3706270333-r8" x="24.4" y="190.8" textLength="854" clip-path="url(#terminal-3706270333-line-7)">https://sam.hooke.me/note/2022/05/decimal-error-when-upgrading-django/</text><text class="terminal-3706270333-r2" x="1390.8" y="190.8" textLength="12.2" clip-path="url(#terminal-3706270333-line-7)">│</text><text class="terminal-3706270333-r1" x="1403" y="190.8" textLength="12.2" clip-path="url(#terminal-3706270333-line-7)">
</text><text class="terminal-3706270333-r2" x="0" y="215.2" textLength="12.2" clip-path="url(#terminal-3706270333-line-8)">│</text><text class="terminal-3706270333-r3" x="24.4" y="215.2" textLength="1329.8" clip-path="url(#terminal-3706270333-line-8)">Decimal&#160;error&#160;when&#160;upgrading&#160;from&#160;Django&#160;3.1&#160;to&#160;Django&#160;3.25&#160;May&#160;2022Attempting&#160;to&#160;upgrade&#160;from&#160;Django&#160;3.1&#160;to&#160;</text><text class="terminal-3706270333-r2" x="1390.8" y="215.2" textLength="12.2" clip-path="url(#terminal-3706270333-line-8)">│</text><text class="terminal-3706270333-r1" x="1403" y="215.2" textLength="12.2" clip-path="url(#terminal-3706270333-line-8)">
</text><text class="terminal-3706270333-r2" x="0" y="239.6" textLength="12.2" clip-path="url(#terminal-3706270333-line-9)">│</text><text class="terminal-3706270333-r3" x="24.4" y="239.6" textLength="1329.8" clip-path="url(#terminal-3706270333-line-9)">Django&#160;3.2&#160;caused&#160;one&#160;of&#160;our&#160;Decimal&#160;handling&#160;unit&#160;tests&#160;to&#160;fail.We&#160;run&#160;the&#160;unit&#160;tests&#160;against&#160;two&#160;backends:&#160;</text><text class="terminal-3706270333-r9" x="1378.6" y="239.6" textLength="12.2" clip-path="url(#terminal-3706270333-line-9)">▂</text><text class="terminal-3706270333-r2" x="1390.8" y="239.6" textLength="12.2" clip-path="url(#terminal-3706270333-line-9)">│</text><text class="terminal-3706270333-r1" x="1403" y="239.6" textLength="12.2" clip-path="url(#terminal-3706270333-line-9)">
</text><text class="terminal-3706270333-r2" x="0" y="264" textLength="12.2" clip-path="url(#terminal-3706270333-line-10)">│</text><text class="terminal-3706270333-r3" x="24.4" y="264" textLength="744.2" clip-path="url(#terminal-3706270333-line-10)">MySQL&#160;and&#160;SQLite.&#160;Interestingly,&#160;the&#160;failure&#160;only&#160;occurred...</text><text class="terminal-3706270333-r2" x="1390.8" y="264" textLength="12.2" clip-path="url(#terminal-3706270333-line-10)">│</text><text class="terminal-3706270333-r1" x="1403" y="264" textLength="12.2" clip-path="url(#terminal-3706270333-line-10)">
</text><text class="terminal-3706270333-r2" x="0" y="288.4" textLength="12.2" clip-path="url(#terminal-3706270333-line-11)">│</text><text class="terminal-3706270333-r2" x="1390.8" y="288.4" textLength="12.2" clip-path="url(#terminal-3706270333-line-11)">│</text><text class="terminal-3706270333-r1" x="1403" y="288.4" textLength="12.2" clip-path="url(#terminal-3706270333-line-11)">
</text><text class="terminal-3706270333-r2" x="0" y="312.8" textLength="12.2" clip-path="url(#terminal-3706270333-line-12)">│</text><text class="terminal-3706270333-r6" x="24.4" y="312.8" textLength="585.6" clip-path="url(#terminal-3706270333-line-12)">Django,&#160;SQLite,&#160;and&#160;the&#160;Database&#160;is&#160;Locked&#160;Error</text><text class="terminal-3706270333-r2" x="1390.8" y="312.8" textLength="12.2" clip-path="url(#terminal-3706270333-line-12)">│</text><text class="terminal-3706270333-r1" x="1403" y="312.8" textLength="12.2" clip-path="url(#terminal-3706270333-line-12)">
</text><text class="terminal-3706270333-r2" x="0" y="337.2" textLength="12.2" clip-path="url(#terminal-3706270333-line-13)">│</text><text class="terminal-3706270333-r8" x="24.4" y="337.2" textLength="512.4" clip-path="url(#terminal-3706270333-line-13)">https://blog.pecar.me/django-sqlite-dblock</text><text class="terminal-3706270333-r2" x="1390.8" y="337.2" textLength="12.2" clip-path="url(#terminal-3706270333-line-13)">│</text><text class="terminal-3706270333-r1" x="1403" y="337.2" textLength="12.2" clip-path="url(#terminal-3706270333-line-13)">
</text><text class="terminal-3706270333-r2" x="0" y="361.6" textLength="12.2" clip-path="url(#terminal-3706270333-line-14)">│</text><text class="terminal-3706270333-r3" x="24.4" y="361.6" textLength="1342" clip-path="url(#terminal-3706270333-line-14)">16&#160;Jan&#160;2024&#160;Django,&#160;SQLite,&#160;and&#160;the&#160;Database&#160;is&#160;Locked&#160;Error&#160;SQLite&#160;is&#160;gaining&#160;traction&#160;as&#160;a&#160;viable&#160;option&#160;for</text><text class="terminal-3706270333-r2" x="1390.8" y="361.6" textLength="12.2" clip-path="url(#terminal-3706270333-line-14)">│</text><text class="terminal-3706270333-r1" x="1403" y="361.6" textLength="12.2" clip-path="url(#terminal-3706270333-line-14)">
</text><text class="terminal-3706270333-r2" x="0" y="386" textLength="12.2" clip-path="url(#terminal-3706270333-line-15)">│</text><text class="terminal-3706270333-r3" x="24.4" y="386" textLength="1256.6" clip-path="url(#terminal-3706270333-line-15)">web&#160;applications&#160;in&#160;production&#160;environments.&#160;Unfortunately,&#160;Django&#160;developers&#160;wanting&#160;to&#160;use&#160;SQLite&#160;in&#160;</text><text class="terminal-3706270333-r2" x="1390.8" y="386" textLength="12.2" clip-path="url(#terminal-3706270333-line-15)">│</text><text class="terminal-3706270333-r1" x="1403" y="386" textLength="12.2" clip-path="url(#terminal-3706270333-line-15)">
</text><text class="terminal-3706270333-r2" x="0" y="410.4" textLength="12.2" clip-path="url(#terminal-3706270333-line-16)">│</text><text class="terminal-3706270333-r3" x="24.4" y="410.4" textLength="768.6" clip-path="url(#terminal-3706270333-line-16)">production&#160;need&#160;to&#160;be&#160;aware&#160;of&#160;the&#160;database&#160;is&#160;locked&#160;error....</text><text class="terminal-3706270333-r2" x="1390.8" y="410.4" textLength="12.2" clip-path="url(#terminal-3706270333-line-16)">│</text><text class="terminal-3706270333-r1" x="1403" y="410.4" textLength="12.2" clip-path="url(#terminal-3706270333-line-16)">
</text><text class="terminal-3706270333-r2" x="0" y="434.8" textLength="12.2" clip-path="url(#terminal-3706270333-line-17)">│</text><text class="terminal-3706270333-r2" x="1390.8" y="434.8" textLength="12.2" clip-path="url(#terminal-3706270333-line-17)">│</text><text class="terminal-3706270333-r1" x="1403" y="434.8" textLength="12.2" clip-path="url(#terminal-3706270333-line-17)">
</text><text class="terminal-3706270333-r2" x="0" y="459.2" textLength="12.2" clip-path="url(#terminal-3706270333-line-18)">│</text><text class="terminal-3706270333-r6" x="24.4" y="459.2" textLength="414.8" clip-path="url(#terminal-3706270333-line-18)">Optimal&#160;SQLite&#160;settings&#160;for&#160;Django</text><text class="terminal-3706270333-r2" x="1390.8" y="459.2" textLength="12.2" clip-path="url(#terminal-3706270333-line-18)">│</text><text class="terminal-3706270333-r1" x="1403" y="459.2" textLength="12.2" clip-path="url(#terminal-3706270333-line-18)">
</text><text class="terminal-3706270333-r2" x="0" y="483.6" textLength="12.2" clip-path="url(#terminal-3706270333-line-19)">│</text><text class="terminal-3706270333-r8" x="24.4" y="483.6" textLength="671" clip-path="url(#terminal-3706270333-line-19)">https://gcollazo.com/optimal-sqlite-settings-for-django</text><text class="terminal-3706270333-r2" x="1390.8" y="483.6" textLength="12.2" clip-path="url(#terminal-3706270333-line-19)">│</text><text class="terminal-3706270333-r1" x="1403" y="483.6" textLength="12.2" clip-path="url(#terminal-3706270333-line-19)">
</text><text class="terminal-3706270333-r2" x="0" y="508" textLength="12.2" clip-path="url(#terminal-3706270333-line-20)">│</text><text class="terminal-3706270333-r3" x="24.4" y="508" textLength="1232.2" clip-path="url(#terminal-3706270333-line-20)">Optimal&#160;SQLite&#160;settings&#160;for&#160;Django&#160;Last&#160;updated&#160;2024-08-08&#160;Requires:&#160;Django&#160;&gt;=&#160;5.1&#160;There’s&#160;plenty&#160;of&#160;</text><text class="terminal-3706270333-r2" x="1390.8" y="508" textLength="12.2" clip-path="url(#terminal-3706270333-line-20)">│</text><text class="terminal-3706270333-r1" x="1403" y="508" textLength="12.2" clip-path="url(#terminal-3706270333-line-20)">
</text><text class="terminal-3706270333-r2" x="0" y="532.4" textLength="12.2" clip-path="url(#terminal-3706270333-line-21)">╰</text><text class="terminal-3706270333-r2" x="12.2" y="532.4" textLength="1232.2" clip-path="url(#terminal-3706270333-line-21)">─────────────────────────────────────────────────────────────────────────────────────────────────────</text><text class="terminal-3706270333-r2" x="1244.4" y="532.4" textLength="134.2" clip-path="url(#terminal-3706270333-line-21)">&#160;in&#160;0.053s&#160;</text><text class="terminal-3706270333-r2" x="1378.6" y="532.4" textLength="12.2" clip-path="url(#terminal-3706270333-line-21)">─</text><text class="terminal-3706270333-r2" x="1390.8" y="532.4" textLength="12.2" clip-path="url(#terminal-3706270333-line-21)">╯</text>
    </g>
    </g>
</svg>
